<svg width="127" height="136" viewBox="0 0 127 136" fill="none" xmlns="http://www.w3.org/2000/svg">
<g clip-path="url(#clip0)">
<path d="M35.8724 4.8594C38.5478 5.2416 41.0594 3.3852 41.387 0.7098C41.4416 0.4368 41.4416 0.2184 41.4416 0H40.6226C40.6226 0.1638 40.6226 0.3822 40.568 0.546C40.3496 2.6208 38.5478 4.095 36.5276 4.095C36.3638 4.095 36.1454 4.095 35.927 4.0404C34.835 3.8766 33.8522 3.3306 33.197 2.457C32.7056 1.7472 32.4326 0.8736 32.4326 0H31.6682C31.6682 1.0374 31.9958 2.0748 32.651 2.9484C33.4154 3.9858 34.562 4.6956 35.8724 4.8594Z" fill="black"/>
<path d="M36.1996 2.6208C36.8548 2.73 37.5646 2.5662 38.1652 2.1294C38.7112 1.6926 39.0934 1.092 39.2026 0.3822C39.2026 0.273 39.2026 0.1092 39.2026 0H38.3836C38.3836 0.1092 38.3836 0.1638 38.3836 0.273C38.329 0.7644 38.056 1.2012 37.6738 1.4742C37.3462 1.6926 36.964 1.8564 36.5818 1.8564C36.4726 1.8564 36.418 1.8564 36.3088 1.8564C35.8174 1.7472 35.3806 1.5288 35.053 1.092C34.8346 0.7644 34.6708 0.3822 34.6708 0H33.9064C33.9064 0.546 34.0702 1.1466 34.4524 1.5834C34.8346 2.184 35.4898 2.5116 36.1996 2.6208Z" fill="black"/>
<path d="M30.849 4.3134C31.9956 5.8422 33.6336 6.825 35.5446 7.098C37.4556 7.371 39.312 6.8796 40.8408 5.733C42.3696 4.5864 43.3524 2.8938 43.6254 1.0374C43.68 0.6552 43.68 0.3276 43.68 0H42.9156C42.9156 0.273 42.9156 0.6006 42.861 0.8736C42.588 2.5662 41.7144 4.0404 40.3494 5.0778C39.2574 5.8968 37.8924 6.3336 36.5274 6.3336C36.2544 6.3336 35.9268 6.3336 35.6538 6.279C33.9612 6.0606 32.487 5.187 31.4496 3.822C30.6306 2.73 30.1938 1.365 30.1938 0H29.3748C29.3748 1.5288 29.8662 3.0576 30.849 4.3134Z" fill="black"/>
<path d="M29.047 5.6784C30.5212 7.644 32.7598 8.9544 35.2168 9.3366C40.3492 10.0464 45.154 6.4428 45.8638 1.3104C45.9184 0.8736 45.973 0.4368 45.973 0H45.154C45.154 0.3822 45.0994 0.819 45.0448 1.2012C44.4442 5.5146 40.786 8.6268 36.5272 8.6268C36.145 8.6268 35.7082 8.6268 35.326 8.5176C33.0874 8.19 31.0672 7.0434 29.6476 5.187C28.501 3.6582 27.9004 1.8564 27.9004 0H27.136C27.136 2.0202 27.7912 3.9858 29.047 5.6784Z" fill="black"/>
<path d="M58.3675 95.1121C59.2411 95.1121 59.9509 94.4023 59.9509 93.5287C59.9509 92.6551 59.2411 91.9453 58.3675 91.9453C57.4939 91.9453 56.7841 92.6551 56.7841 93.5287C56.7841 94.4023 57.4939 95.1121 58.3675 95.1121Z" fill="black"/>
<path d="M58.3675 86.2176C59.2411 86.2176 59.9509 85.5078 59.9509 84.6342C59.9509 83.7606 59.2411 83.0508 58.3675 83.0508C57.4939 83.0508 56.7841 83.7606 56.7841 84.6342C56.7841 85.5078 57.4939 86.2176 58.3675 86.2176Z" fill="black"/>
<path d="M58.3675 77.3133C59.2411 77.3133 59.9509 76.6035 59.9509 75.7299C59.9509 74.8563 59.2411 74.1465 58.3675 74.1465C57.4939 74.1465 56.7841 74.8563 56.7841 75.7299C56.7841 76.6035 57.4939 77.3133 58.3675 77.3133Z" fill="black"/>
<path d="M0 93.3105V95.3853L2.8392 98.2245L0 101.064V103.139L4.914 98.2245L0 93.3105Z" fill="black"/>
<path d="M12.3397 115.205L11.0293 116.515L12.5581 118.044L11.0293 119.518L12.3397 120.829L13.8685 119.3L15.3427 120.829L16.6531 119.518L15.1243 118.044L16.6531 116.515L15.3427 115.205L13.8685 116.734L12.3397 115.205Z" fill="black"/>
<path d="M40.5134 44.9367L42.9158 42.5343L45.3182 44.9367L47.393 42.8619L44.9906 40.4595L47.393 38.0025L45.3182 35.9277L42.9158 38.3847L40.5134 35.9277L38.4386 38.0025L40.841 40.4595L38.4386 42.8619L40.5134 44.9367Z" fill="black"/>
<path d="M28.228 84.6836C25.6618 84.6836 23.587 86.7584 23.587 89.3246H32.869C32.869 86.7584 30.7942 84.6836 28.228 84.6836Z" fill="black"/>
<path d="M1.4743 53.2898C1.4743 57.0572 4.5865 60.1694 8.3539 60.1694V57.0026C6.3337 57.0026 4.6411 55.3646 4.6411 53.2898C4.6411 51.2696 6.2791 49.577 8.3539 49.577V46.4102C4.5319 46.4102 1.4743 49.4678 1.4743 53.2898Z" fill="black"/>
<path d="M0.2184 19.4404C0.546 19.1128 0.7098 18.949 1.092 18.949C1.4742 18.949 1.638 19.1128 1.9656 19.4404C2.3478 19.8226 2.8392 20.314 3.822 20.314C4.8048 20.314 5.2962 19.8226 5.6784 19.4404C5.8968 19.1128 6.0606 18.949 6.4428 18.949C6.825 18.949 6.9888 19.1128 7.3164 19.4404C7.644 19.8226 8.19 20.314 9.1182 20.314C10.0464 20.314 10.5924 19.8226 10.9746 19.4404C11.3022 19.1128 11.466 18.949 11.7936 18.949C12.1758 18.949 12.3396 19.1128 12.6672 19.4404C13.0494 19.8226 13.5408 20.314 14.5236 20.314V18.949C14.1414 18.949 13.9776 18.7852 13.65 18.4576C13.2678 18.0754 12.7764 17.584 11.7936 17.584C10.8108 17.584 10.3194 18.0754 9.9372 18.4576C9.6642 18.7852 9.5004 18.949 9.1182 18.949C8.736 18.949 8.5722 18.7852 8.2446 18.4576C7.917 18.0754 7.4256 17.584 6.4428 17.584C5.46 17.584 4.9686 18.0754 4.5864 18.4576C4.3134 18.7852 4.1496 18.949 3.7674 18.949C3.3852 18.949 3.2214 18.7852 2.8938 18.4576C2.5662 18.0754 2.0202 17.584 1.092 17.584C0.6552 17.584 0.273 17.6932 0 17.857V19.6588C0.0546 19.6042 0.1638 19.495 0.2184 19.4404Z" fill="black"/>
<path d="M0.2184 24.0791C0.546 23.7515 0.7098 23.6423 1.092 23.6423C1.4742 23.6423 1.638 23.8061 1.9656 24.1337C2.3478 24.5159 2.8392 25.0073 3.822 25.0073C4.8048 25.0073 5.2962 24.5159 5.6784 24.1337C6.006 23.8061 6.1698 23.6423 6.552 23.6423C6.9342 23.6423 7.098 23.8061 7.4256 24.1337C7.644 24.4613 8.19 25.0073 9.1182 25.0073C10.0464 25.0073 10.5924 24.5159 10.9746 24.1337C11.3022 23.7515 11.466 23.6423 11.7936 23.6423C12.1758 23.6423 12.3396 23.8061 12.6672 24.1337C13.0494 24.5159 13.5408 25.0073 14.5236 25.0073V23.6423C14.1414 23.6423 13.9776 23.4785 13.65 23.1509C13.2678 22.7687 12.7764 22.2773 11.7936 22.2773C10.8108 22.2773 10.3194 22.7687 9.9372 23.1509C9.6642 23.4785 9.5004 23.6423 9.1182 23.6423C8.736 23.6423 8.5722 23.4785 8.2446 23.1509C7.917 22.7687 7.4256 22.2773 6.4428 22.2773C5.46 22.2773 4.9686 22.7687 4.5864 23.1509C4.3134 23.4785 4.1496 23.6423 3.7674 23.6423C3.3852 23.6423 3.2214 23.4785 2.8938 23.1509C2.5662 22.7687 2.0202 22.2773 1.092 22.2773C0.6552 22.2773 0.273 22.3865 0 22.5503V24.3521C0.0546 24.2429 0.1638 24.1883 0.2184 24.0791Z" fill="black"/>
<path d="M48.3759 112.314L50.5599 110.622L53.1807 112.697L55.8561 110.622L58.4769 112.697L61.1523 110.622L63.7731 112.697L66.4485 110.622L68.6325 112.314L69.5607 111.113L66.4485 108.656L63.7731 110.731L61.1523 108.656L58.4769 110.731L55.8561 108.656L53.1807 110.731L50.5599 108.656L47.3931 111.113L48.3759 112.314Z" fill="black"/>
<path d="M28.9382 58.9707H27.5186V76.9341H28.9382V58.9707Z" fill="black"/>
<path d="M124.215 15.8303C124.517 15.8303 124.761 15.5858 124.761 15.2843C124.761 14.9827 124.517 14.7383 124.215 14.7383C123.914 14.7383 123.669 14.9827 123.669 15.2843C123.669 15.5858 123.914 15.8303 124.215 15.8303Z" fill="black"/>
<path d="M120.011 15.8303C120.284 15.8303 120.557 15.6119 120.557 15.2843C120.557 15.0113 120.338 14.7383 120.011 14.7383C119.738 14.7383 119.465 14.9567 119.465 15.2843C119.465 15.5573 119.683 15.8303 120.011 15.8303Z" fill="black"/>
<path d="M115.806 15.8303C116.108 15.8303 116.352 15.5858 116.352 15.2843C116.352 14.9827 116.108 14.7383 115.806 14.7383C115.505 14.7383 115.26 14.9827 115.26 15.2843C115.26 15.5858 115.505 15.8303 115.806 15.8303Z" fill="black"/>
<path d="M111.602 15.8303C111.904 15.8303 112.148 15.5858 112.148 15.2843C112.148 14.9827 111.904 14.7383 111.602 14.7383C111.301 14.7383 111.056 14.9827 111.056 15.2843C111.056 15.5858 111.301 15.8303 111.602 15.8303Z" fill="black"/>
<path d="M107.398 15.8303C107.671 15.8303 107.944 15.6119 107.944 15.2843C107.944 15.0113 107.726 14.7383 107.398 14.7383C107.07 14.7383 106.852 14.9567 106.852 15.2843C106.852 15.5573 107.07 15.8303 107.398 15.8303Z" fill="black"/>
<path d="M124.215 11.6291C124.517 11.6291 124.761 11.3847 124.761 11.0831C124.761 10.7816 124.517 10.5371 124.215 10.5371C123.914 10.5371 123.669 10.7816 123.669 11.0831C123.669 11.3847 123.914 11.6291 124.215 11.6291Z" fill="black"/>
<path d="M120.011 11.6291C120.284 11.6291 120.557 11.4107 120.557 11.0831C120.557 10.8101 120.338 10.5371 120.011 10.5371C119.738 10.5371 119.465 10.7555 119.465 11.0831C119.465 11.3561 119.683 11.6291 120.011 11.6291Z" fill="black"/>
<path d="M115.806 11.6291C116.108 11.6291 116.352 11.3847 116.352 11.0831C116.352 10.7816 116.108 10.5371 115.806 10.5371C115.505 10.5371 115.26 10.7816 115.26 11.0831C115.26 11.3847 115.505 11.6291 115.806 11.6291Z" fill="black"/>
<path d="M111.602 11.6291C111.904 11.6291 112.148 11.3847 112.148 11.0831C112.148 10.7816 111.904 10.5371 111.602 10.5371C111.301 10.5371 111.056 10.7816 111.056 11.0831C111.056 11.3847 111.301 11.6291 111.602 11.6291Z" fill="black"/>
<path d="M107.398 11.6291C107.671 11.6291 107.944 11.4107 107.944 11.0831C107.944 10.8101 107.726 10.5371 107.398 10.5371C107.07 10.5371 106.852 10.7555 106.852 11.0831C106.852 11.3561 107.07 11.6291 107.398 11.6291Z" fill="black"/>
<path d="M124.215 7.42598C124.543 7.42598 124.761 7.20758 124.761 6.87998C124.761 6.55238 124.543 6.33398 124.215 6.33398C123.942 6.33398 123.669 6.55238 123.669 6.87998C123.669 7.15298 123.888 7.42598 124.215 7.42598Z" fill="black"/>
<path d="M120.011 7.42598C120.284 7.42598 120.557 7.20758 120.557 6.87998C120.557 6.55238 120.338 6.33398 120.011 6.33398C119.738 6.33398 119.465 6.55238 119.465 6.87998C119.465 7.15298 119.683 7.42598 120.011 7.42598Z" fill="black"/>
<path d="M115.806 7.42598C116.079 7.42598 116.352 7.20758 116.352 6.87998C116.352 6.55238 116.134 6.33398 115.806 6.33398C115.479 6.33398 115.26 6.55238 115.26 6.87998C115.26 7.15298 115.479 7.42598 115.806 7.42598Z" fill="black"/>
<path d="M111.602 7.42598C111.93 7.42598 112.148 7.20758 112.148 6.87998C112.148 6.55238 111.93 6.33398 111.602 6.33398C111.275 6.33398 111.056 6.55238 111.056 6.87998C111.056 7.15298 111.275 7.42598 111.602 7.42598Z" fill="black"/>
<path d="M107.398 7.42598C107.671 7.42598 107.944 7.20758 107.944 6.87998C107.944 6.55238 107.726 6.33398 107.398 6.33398C107.07 6.33398 106.852 6.55238 106.852 6.87998C106.852 7.15298 107.07 7.42598 107.398 7.42598Z" fill="black"/>
<path d="M124.215 3.22481C124.517 3.22481 124.761 2.98036 124.761 2.67881C124.761 2.37727 124.517 2.13281 124.215 2.13281C123.914 2.13281 123.669 2.37727 123.669 2.67881C123.669 2.98036 123.914 3.22481 124.215 3.22481Z" fill="black"/>
<path d="M120.011 3.22481C120.284 3.22481 120.557 3.00641 120.557 2.67881C120.557 2.35121 120.338 2.13281 120.011 2.13281C119.738 2.13281 119.465 2.35121 119.465 2.67881C119.465 2.95181 119.683 3.22481 120.011 3.22481Z" fill="black"/>
<path d="M115.806 3.22481C116.108 3.22481 116.352 2.98036 116.352 2.67881C116.352 2.37727 116.108 2.13281 115.806 2.13281C115.505 2.13281 115.26 2.37727 115.26 2.67881C115.26 2.98036 115.505 3.22481 115.806 3.22481Z" fill="black"/>
<path d="M111.602 3.22481C111.904 3.22481 112.148 2.98036 112.148 2.67881C112.148 2.37727 111.904 2.13281 111.602 2.13281C111.301 2.13281 111.056 2.37727 111.056 2.67881C111.056 2.98036 111.301 3.22481 111.602 3.22481Z" fill="black"/>
<path d="M107.398 3.22481C107.671 3.22481 107.944 3.00641 107.944 2.67881C107.944 2.35121 107.726 2.13281 107.398 2.13281C107.07 2.13281 106.852 2.35121 106.852 2.67881C106.852 2.95181 107.07 3.22481 107.398 3.22481Z" fill="black"/>
<path d="M112.203 47.3906H110.893V69.6674H112.203V47.3906Z" fill="black"/>
<path d="M115.97 47.3906H114.66V69.6674H115.97V47.3906Z" fill="black"/>
<path d="M119.792 47.3906H118.482V69.6674H119.792V47.3906Z" fill="black"/>
<path d="M91.7278 0.0546L91.6733 0H73.4915V0.0546H91.7278Z" fill="black"/>
<path d="M68.2499 32.051C70.5431 32.051 72.4541 30.1946 72.4541 27.8468C72.4541 25.499 70.5977 23.6426 68.2499 23.6426C65.9021 23.6426 64.0457 25.499 64.0457 27.8468C64.0457 30.1946 65.9021 32.051 68.2499 32.051Z" fill="black"/>
<path d="M96.9699 35.2129H90.4178L93.6939 40.6729L96.9699 35.2129Z" fill="black"/>
<path d="M80.0984 60.0605H75.4028V64.7561H80.0984V60.0605Z" fill="black"/>
<path d="M35.8723 141.357C38.5477 141.74 41.0593 139.883 41.3869 137.208C41.5507 135.897 41.2231 134.642 40.4587 133.55C39.6943 132.512 38.5477 131.802 37.2373 131.639C37.0189 131.584 36.7459 131.584 36.5275 131.584C34.1251 131.584 31.9957 133.386 31.6681 135.788C31.5043 137.099 31.8319 138.354 32.5963 139.446C33.4153 140.484 34.5619 141.194 35.8723 141.357ZM32.4871 135.952C32.8147 133.713 34.8895 132.13 37.1281 132.458C38.2201 132.621 39.2029 133.167 39.8581 134.041C40.5133 134.915 40.7863 136.007 40.6225 137.099C40.3495 139.173 38.5477 140.648 36.5821 140.648C36.4183 140.648 36.1999 140.648 35.9815 140.593C34.8895 140.429 33.9067 139.883 33.2515 139.01C32.5963 138.081 32.3233 136.989 32.4871 135.952Z" fill="black"/>
<path d="M36.1997 139.119C36.9095 139.228 37.6193 139.009 38.1653 138.627C38.7113 138.19 39.0935 137.59 39.2027 136.88C39.3119 136.17 39.0935 135.46 38.7113 134.914C38.2199 134.314 37.6193 133.986 36.9095 133.877C36.8003 133.877 36.6365 133.877 36.5273 133.877C35.9813 133.877 35.3807 134.041 34.9439 134.423C34.3979 134.86 34.0157 135.46 33.9065 136.17C33.7973 136.88 34.0157 137.59 34.3979 138.136C34.8347 138.682 35.4899 139.009 36.1997 139.119ZM34.7255 136.225C34.7801 135.733 35.0531 135.297 35.4353 135.024C35.8175 134.751 36.3089 134.587 36.8003 134.641C37.2917 134.696 37.7285 134.969 38.0015 135.351C38.2745 135.733 38.4383 136.225 38.3837 136.716C38.3291 137.208 38.0561 137.644 37.6739 137.917C37.3463 138.136 36.9641 138.3 36.5819 138.3C36.4727 138.3 36.4181 138.3 36.3089 138.3C35.8175 138.245 35.3807 137.972 35.1077 137.59C34.7801 137.208 34.6163 136.716 34.7255 136.225Z" fill="black"/>
<path d="M35.5445 143.594C37.4555 143.867 39.3119 143.376 40.8407 142.229C42.3695 141.083 43.3523 139.39 43.6253 137.534C43.8983 135.623 43.4069 133.766 42.2603 132.238C41.1137 130.709 39.4211 129.726 37.5647 129.453C37.2371 129.398 36.9095 129.398 36.5273 129.398C34.9985 129.398 33.4697 129.89 32.2139 130.818C30.6851 131.965 29.7023 133.657 29.4293 135.514C29.1563 137.425 29.6477 139.281 30.7943 140.81C31.9955 142.339 33.6335 143.321 35.5445 143.594ZM30.2483 135.623C30.4667 133.93 31.3403 132.456 32.7053 131.419C34.0703 130.381 35.7629 129.944 37.4009 130.217C39.0935 130.436 40.5677 131.309 41.6051 132.674C42.6425 134.039 43.0793 135.732 42.8063 137.37C42.5879 139.063 41.7143 140.537 40.3493 141.574C39.2573 142.393 37.8923 142.83 36.5273 142.83C36.2543 142.83 35.9267 142.83 35.6537 142.775C33.9611 142.557 32.4869 141.683 31.4495 140.318C30.4121 138.953 30.0299 137.315 30.2483 135.623Z" fill="black"/>
<path d="M27.2454 135.188C26.9178 137.7 27.5184 140.157 29.0472 142.177C30.576 144.197 32.76 145.508 35.2716 145.835C40.404 146.545 45.1542 142.941 45.9186 137.809C46.2462 135.297 45.6456 132.84 44.1168 130.82C42.588 128.8 40.404 127.49 37.8924 127.162C37.4556 127.107 37.0188 127.053 36.582 127.053C31.941 127.107 27.9006 130.493 27.2454 135.188ZM36.5274 127.872C36.9096 127.872 37.3464 127.926 37.7286 127.981C40.0218 128.309 42.042 129.51 43.407 131.312C44.772 133.168 45.3726 135.407 45.045 137.7C44.4444 142.013 40.7316 145.125 36.5274 145.125C36.1452 145.125 35.7084 145.071 35.3262 145.016C33.033 144.689 31.0128 143.487 29.6478 141.686C28.2828 139.829 27.6822 137.591 28.0098 135.297C28.6104 130.984 32.3232 127.872 36.5274 127.872Z" fill="black"/>
<path d="M124.215 135.514C124.517 135.514 124.761 135.269 124.761 134.968C124.761 134.666 124.517 134.422 124.215 134.422C123.914 134.422 123.669 134.666 123.669 134.968C123.669 135.269 123.914 135.514 124.215 135.514Z" fill="black"/>
<path d="M120.011 134.422C119.738 134.422 119.465 134.64 119.465 134.968C119.465 135.295 119.683 135.514 120.011 135.514C120.284 135.514 120.557 135.295 120.557 134.968C120.557 134.64 120.284 134.422 120.011 134.422Z" fill="black"/>
<path d="M115.806 135.514C116.108 135.514 116.352 135.269 116.352 134.968C116.352 134.666 116.108 134.422 115.806 134.422C115.505 134.422 115.26 134.666 115.26 134.968C115.26 135.269 115.505 135.514 115.806 135.514Z" fill="black"/>
<path d="M111.602 135.514C111.904 135.514 112.148 135.269 112.148 134.968C112.148 134.666 111.904 134.422 111.602 134.422C111.301 134.422 111.056 134.666 111.056 134.968C111.056 135.269 111.301 135.514 111.602 135.514Z" fill="black"/>
<path d="M107.398 135.514C107.671 135.514 107.944 135.295 107.944 134.968C107.944 134.695 107.726 134.422 107.398 134.422C107.07 134.422 106.852 134.64 106.852 134.968C106.852 135.241 107.07 135.514 107.398 135.514Z" fill="black"/>
<path d="M91.2364 135.732H73.9829L73.4915 136.551H91.7278L91.2364 135.732Z" fill="black"/>
<path d="M89.8169 133.387H75.4025L74.9111 134.206H90.3083L89.8169 133.387Z" fill="black"/>
<path d="M76.3307 131.86H88.8887L88.3427 130.986H76.8221L76.3307 131.86Z" fill="black"/>
<path d="M77.805 129.46H87.4146L86.9232 128.641H78.2964L77.805 129.46Z" fill="black"/>
<path d="M79.2247 127.112H85.9951L85.5037 126.293H79.7161L79.2247 127.112Z" fill="black"/>
<path d="M84.0295 123.885H81.1903L80.6443 124.758H84.5755L84.0295 123.885Z" fill="black"/>
<path d="M82.61 121.539L82.1186 122.358H83.1014L82.61 121.539Z" fill="black"/>
<path d="M91.837 89.1032C91.837 91.2326 93.5296 92.9252 95.659 92.9252C97.7884 92.9252 99.481 91.2326 99.481 89.1032C99.481 86.9738 97.7884 85.2812 95.659 85.2812C93.5296 85.2812 91.837 87.0284 91.837 89.1032ZM97.1332 89.1032C97.1332 89.9222 96.4234 90.632 95.6044 90.632C94.7854 90.632 94.0756 89.9222 94.0756 89.1032C94.0756 88.2842 94.7854 87.5745 95.6044 87.5745C96.478 87.5745 97.1332 88.2842 97.1332 89.1032Z" fill="black"/>
<path d="M119.902 109.361H110.729L115.315 117.005L119.902 109.361ZM117.336 110.836L115.315 114.166L113.295 110.836H117.336Z" fill="black"/>
</g>
<defs>
<clipPath id="clip0">
<rect width="127" height="136" fill="white"/>
</clipPath>
</defs>
</svg>
